<?xml version="1.0" standalone="no"?>
<!DOCTYPE svg PUBLIC "-//W3C//DTD SVG 20010904//EN"
 "http://www.w3.org/TR/2001/REC-SVG-20010904/DTD/svg10.dtd">
<svg version="1.0" xmlns="http://www.w3.org/2000/svg"
 width="512.000000pt" height="512.000000pt" viewBox="0 0 512.000000 512.000000"
 preserveAspectRatio="xMidYMid meet">
<metadata>
Created by potrace 1.11, written by Peter Selinger 2001-2013
</metadata>
<g transform="translate(0.000000,512.000000) scale(0.100000,-0.100000)"
fill="#000000" stroke="none">
<path d="M653 4405 c-168 -46 -298 -179 -332 -343 -16 -75 -16 -3629 0 -3704
26 -124 120 -248 231 -304 112 -57 2 -54 2018 -54 1669 0 1862 2 1911 16 153
45 275 169 314 320 14 54 15 265 13 1900 l-3 1839 -22 55 c-46 112 -152 218
-260 261 -52 21 -77 24 -243 26 -165 3 -182 2 -154 -11 17 -8 42 -29 55 -47
l24 -34 0 -1815 0 -1815 -24 -34 c-47 -65 60 -61 -1621 -61 -1514 0 -1531 0
-1570 20 -26 13 -47 34 -60 60 -20 39 -20 55 -20 1832 0 1727 1 1795 19 1828
10 19 36 45 57 57 l39 23 -160 -1 c-105 0 -178 -5 -212 -14z"/>
<path d="M3395 3394 c-16 -8 -110 -94 -207 -192 l-177 -176 -84 82 c-46 45
-96 86 -111 92 -125 47 -248 -84 -190 -205 8 -18 81 -98 163 -178 158 -156
177 -167 259 -152 32 6 73 42 284 253 136 135 255 261 264 280 21 44 14 109
-14 150 -41 57 -126 78 -187 46z"/>
<path d="M1589 2938 c-43 -24 -79 -83 -79 -128 0 -50 37 -107 85 -130 38 -18
62 -20 299 -20 293 0 312 4 354 78 28 50 28 94 0 144 -42 74 -60 78 -360 78
-249 0 -265 -2 -299 -22z"/>
<path d="M3395 2244 c-16 -8 -110 -94 -207 -191 l-177 -177 -89 86 c-96 92
-126 107 -197 94 -46 -9 -102 -65 -111 -111 -15 -81 -4 -99 164 -267 131 -131
163 -157 195 -163 87 -16 93 -13 359 253 136 135 255 261 264 280 21 44 14
109 -14 150 -41 57 -126 78 -187 46z"/>
<path d="M1589 1788 c-42 -24 -79 -83 -79 -124 1 -55 34 -109 82 -133 42 -20
59 -21 302 -21 238 0 260 1 296 20 45 23 80 80 80 130 0 50 -35 107 -80 130
-36 19 -58 20 -302 20 -249 0 -265 -2 -299 -22z"/>
</g>
</svg>
